<?xml version="1.0" encoding="UTF-8" standalone="no"?>
<svg
   width="24"
   height="24"
   viewBox="0 0 24 24"
   version="1.1"
   id="svg125"
   sodipodi:docname="add-user.svg"
   inkscape:version="1.1.1 (c3084ef, 2021-09-22)"
   xmlns:inkscape="http://www.inkscape.org/namespaces/inkscape"
   xmlns:sodipodi="http://sodipodi.sourceforge.net/DTD/sodipodi-0.dtd"
   xmlns="http://www.w3.org/2000/svg"
   xmlns:svg="http://www.w3.org/2000/svg">
  <defs
     id="defs129" />
  <sodipodi:namedview
     id="namedview127"
     pagecolor="#ffffff"
     bordercolor="#666666"
     borderopacity="1.0"
     inkscape:pageshadow="2"
     inkscape:pageopacity="0.0"
     inkscape:pagecheckerboard="0"
     showgrid="false"
     inkscape:zoom="20.166667"
     inkscape:cx="12.024793"
     inkscape:cy="12.024793"
     inkscape:window-width="976"
     inkscape:window-height="623"
     inkscape:window-x="158"
     inkscape:window-y="25"
     inkscape:window-maximized="0"
     inkscape:current-layer="svg125" />
  <path
     d="m 16.679752,7.5061984 c 0,0.3662758 0.299326,0.663223 0.668536,0.663223 0.36921,0 0.668536,-0.2969472 0.668536,-0.663223 V 4.8533058 h 2.674145 c 0.36921,0 0.668536,-0.2969383 0.668536,-0.6632231 0,-0.3662849 -0.299326,-0.6632231 -0.668536,-0.6632231 H 18.016824 V 0.87396694 c 0,-0.36628488 -0.299326,-0.66322318 -0.668536,-0.66322318 -0.36921,0 -0.668536,0.2969383 -0.668536,0.66322318 V 3.5268596 h -2.674144 c -0.36921,0 -0.668536,0.2969382 -0.668536,0.6632231 0,0.3662848 0.299326,0.6632231 0.668536,0.6632231 h 2.674144 z"
     id="path119"
     style="stroke-width:0.887833" />
  <path
     fill-rule="evenodd"
     clip-rule="evenodd"
     d="m 11.331464,7.5061984 c 0,1.831469 -1.496567,3.3161156 -3.3426801,3.3161156 -1.8461132,0 -3.34268,-1.4846466 -3.34268,-3.3161156 0,-1.8314421 1.4965668,-3.3161157 3.34268,-3.3161157 1.8461131,0 3.3426801,1.4846736 3.3426801,3.3161157 z m -1.337072,0 c 0,1.0988276 -0.8979419,1.9896691 -2.0056081,1.9896691 -1.1076661,0 -2.005608,-0.8908415 -2.005608,-1.9896691 0,-1.0988635 0.8979419,-1.9896695 2.005608,-1.9896695 1.1076662,0 2.0056081,0.890806 2.0056081,1.9896695 z"
     id="path121"
     style="stroke-width:0.887833" />
  <path
     fill-rule="evenodd"
     clip-rule="evenodd"
     d="m 13.337072,15.464876 c 0,1.831468 -2.394518,3.316115 -5.3482881,3.316115 -2.9537792,0 -5.3482881,-1.484647 -5.3482881,-3.316115 0,-1.831469 2.3945089,-3.316116 5.3482881,-3.316116 2.9537701,0 5.3482881,1.484647 5.3482881,3.316116 z m -1.337072,0 c 0,0.293321 -0.195479,0.759611 -0.938089,1.220065 -0.723713,0.448692 -1.8067416,0.769605 -3.0731271,0.769605 -1.2663855,0 -2.3494317,-0.320913 -3.073162,-0.769605 -0.7425831,-0.460454 -0.9380541,-0.926744 -0.9380541,-1.220065 0,-0.293322 0.195471,-0.759612 0.9380541,-1.220066 0.7237303,-0.448692 1.8067765,-0.769603 3.073162,-0.769603 1.2663855,0 2.3494141,0.320911 3.0731271,0.769603 C 11.804521,14.705264 12,15.171554 12,15.464876 Z"
     id="path123"
     style="stroke-width:0.887833" />
  <text
     xml:space="preserve"
     style="font-style:normal;font-variant:normal;font-weight:bold;font-stretch:normal;font-size:6px;line-height:1.25;font-family:sans-serif;-inkscape-font-specification:'sans-serif, Bold';font-variant-ligatures:normal;font-variant-caps:normal;font-variant-numeric:normal;font-variant-east-asian:normal;word-spacing:0px"
     x="-0.13979462"
     y="24.092926"
     id="text479"><tspan
       sodipodi:role="line"
       x="-0.13979462"
       y="24.092926"
       id="tspan481"
       style="font-style:normal;font-variant:normal;font-weight:bold;font-stretch:normal;font-size:6px;font-family:sans-serif;-inkscape-font-specification:'sans-serif, Bold';font-variant-ligatures:normal;font-variant-caps:normal;font-variant-numeric:normal;font-variant-east-asian:normal">INVITE</tspan></text>
</svg>
