<?xml version="1.0" encoding="UTF-8" standalone="no"?>
<svg
   width="40"
   height="40"
   viewBox="0 0 40 40"
   version="1.1"
   id="svg9108"
   sodipodi:docname="camera-refresh.svg"
   inkscape:version="1.1.1 (c3084ef, 2021-09-22)"
   xmlns:inkscape="http://www.inkscape.org/namespaces/inkscape"
   xmlns:sodipodi="http://sodipodi.sourceforge.net/DTD/sodipodi-0.dtd"
   xmlns="http://www.w3.org/2000/svg"
   xmlns:svg="http://www.w3.org/2000/svg">
  <defs
     id="defs9112" />
  <sodipodi:namedview
     id="namedview9110"
     pagecolor="#ffffff"
     bordercolor="#666666"
     borderopacity="1.0"
     inkscape:pageshadow="2"
     inkscape:pageopacity="0.0"
     inkscape:pagecheckerboard="0"
     showgrid="false"
     width="40px"
     inkscape:zoom="12.175"
     inkscape:cx="19.835729"
     inkscape:cy="26.078029"
     inkscape:window-width="1280"
     inkscape:window-height="709"
     inkscape:window-x="0"
     inkscape:window-y="25"
     inkscape:window-maximized="0"
     inkscape:current-layer="svg9108" />
  <path
     fill-rule="evenodd"
     clip-rule="evenodd"
     d="M 7.1197868,8.8190147 V 23.276361 c 0,0.887104 0.7426749,1.60631 1.6588065,1.60631 H 32.001785 c 0.916052,0 1.658726,-0.719206 1.658726,-1.60631 V 8.8190147 c 0,-0.887181 -0.742674,-1.6063677 -1.658726,-1.6063677 h -4.69193 L 23.992402,3.999893 H 16.787957 L 13.470364,7.212647 H 8.7785933 c -0.9161316,0 -1.6588065,0.7191867 -1.6588065,1.6063677 z M 12.096167,3.999893 14.442072,1.7281397 c 0.622167,-0.6025059 1.466001,-0.94100093 2.345885,-0.94100093 h 7.204445 c 0.879824,0 1.723618,0.33849503 2.345864,0.94100093 l 2.345866,2.2717533 h 3.317653 c 2.748355,0 4.976379,2.1575978 4.976379,4.8191217 V 23.276361 c 0,2.661504 -2.228024,4.819122 -4.976379,4.819122 H 8.7785933 c -2.7483748,0 -4.9763796,-2.157618 -4.9763796,-4.819122 V 8.8190147 c 0,-2.6615239 2.2280048,-4.8191217 4.9763796,-4.8191217 z m -2.9858283,12.851037 4.9763793,-4.81916 4.97638,4.81916 h -3.364471 c 0.681944,1.856518 2.512535,3.185824 4.663705,3.185824 1.204581,0 2.333822,-0.417528 3.21484,-1.148107 l 2.281769,2.334768 c -1.460666,1.260297 -3.386326,2.025959 -5.496609,2.025959 -3.997128,0 -7.331641,-2.747285 -8.099676,-6.398444 z m 22.8914463,-3.212813 -4.97638,4.819122 -4.976379,-4.819122 h 3.042359 c -0.674001,-1.870628 -2.511878,-3.212734 -4.673418,-3.212734 -1.141382,0 -2.215225,0.371361 -3.08639,1.045883 -0.04322,0.03346 -2.071767,-2.5092776 -2.071767,-2.5092776 1.413909,-1.0947693 3.207078,-1.7493414 5.158157,-1.7493414 4.006981,0 7.347924,2.7609135 8.105329,6.42547 z"
     id="path9106"
     style=";stroke-width:1.95884" />
  <text
     xml:space="preserve"
     style="font-size:10.6667px;line-height:1.25;font-family:sans-serif;"
     x="6.9815192"
     y="39.014374"
     id="text9618"><tspan
       sodipodi:role="line"
       id="tspan9616"
       x="6.9815192"
       y="39.014374"
       style="font-style:normal;font-variant:normal;font-weight:bold;font-stretch:normal;font-family:sans-serif;-inkscape-font-specification:'sans-serif Bold';">FLIP</tspan></text>
</svg>
