<?xml version="1.0" encoding="UTF-8" standalone="no"?>
<svg
   height="40"
   width="40"
   viewBox="0 0 40 40"
   version="1.1"
   id="svg30803"
   sodipodi:docname="camera-empty.svg"
   inkscape:version="1.1.1 (c3084ef, 2021-09-22)"
   xmlns:inkscape="http://www.inkscape.org/namespaces/inkscape"
   xmlns:sodipodi="http://sodipodi.sourceforge.net/DTD/sodipodi-0.dtd"
   xmlns="http://www.w3.org/2000/svg"
   xmlns:svg="http://www.w3.org/2000/svg">
  <defs
     id="defs30807" />
  <sodipodi:namedview
     id="namedview30805"
     pagecolor="#ffffff"
     bordercolor="#666666"
     borderopacity="1.0"
     inkscape:pageshadow="2"
     inkscape:pageopacity="0.0"
     inkscape:pagecheckerboard="0"
     showgrid="false"
     inkscape:zoom="9.8341677"
     inkscape:cx="3.1014318"
     inkscape:cy="18.100159"
     inkscape:window-width="1280"
     inkscape:window-height="706"
     inkscape:window-x="0"
     inkscape:window-y="26"
     inkscape:window-maximized="0"
     inkscape:current-layer="svg30803"
     width="40px" />
  <text
     xml:space="preserve"
     style="font-style:normal;font-weight:normal;font-size:10.6667px;line-height:1.25;font-family:sans-serif;;fill-opacity:1;stroke:none"
     x="7.161418"
     y="39.414661"
     id="text33115"><tspan
       sodipodi:role="line"
       id="tspan33113"
       x="7.161418"
       y="39.414661"
       style="font-style:normal;font-variant:normal;font-weight:bold;font-stretch:normal;font-size:10.6667px;font-family:sans-serif;-inkscape-font-specification:'sans-serif Bold';">CAM</tspan></text>
  <path
     fill-rule="evenodd"
     clip-rule="evenodd"
     d="M 26.086966,4.0585107 H 8.7330965 c -1.7426118,0 -3.1552646,1.4885309 -3.1552646,3.3247261 V 20.682232 c 0,1.836159 1.4126528,3.324672 3.1552646,3.324672 H 26.086966 c 1.742561,0 3.155196,-1.488513 3.155196,-3.324672 v -1.424859 l 5.527831,3.328298 c 0.238366,0.143629 0.508226,0.21907 0.782733,0.21907 0.871366,0 1.577684,-0.744257 1.577684,-1.662427 V 6.9230637 c 0,-0.289288 -0.07177,-0.5735889 -0.207903,-0.8247573 C 36.49018,5.3011686 35.526566,5.0242305 34.769993,5.4797249 L 29.242162,8.8081324 V 7.3832368 c 0,-1.8361952 -1.412635,-3.3247261 -3.155196,-3.3247261 z m 0,6.6494703 v 6.649398 3.324853 H 8.7330965 V 7.3832368 H 26.086966 Z m 7.888076,7.569744 -4.73288,-2.849719 v -2.790598 l 4.73288,-2.8497913 z"
     id="path20390"
     style=";stroke-width:1.76666" />
</svg>
