<?xml version="1.0" encoding="UTF-8" standalone="no"?>
<svg
   width="24"
   height="24"
   viewBox="0 0 24 24"
   version="1.1"
   id="svg98"
   sodipodi:docname="connection.svg"
   inkscape:version="1.1.1 (c3084ef, 2021-09-22)"
   xmlns:inkscape="http://www.inkscape.org/namespaces/inkscape"
   xmlns:sodipodi="http://sodipodi.sourceforge.net/DTD/sodipodi-0.dtd"
   xmlns="http://www.w3.org/2000/svg"
   xmlns:svg="http://www.w3.org/2000/svg">
  <defs
     id="defs102" />
  <sodipodi:namedview
     id="namedview100"
     pagecolor="#ffffff"
     bordercolor="#666666"
     borderopacity="1.0"
     inkscape:pageshadow="2"
     inkscape:pageopacity="0.0"
     inkscape:pagecheckerboard="0"
     showgrid="false"
     inkscape:zoom="18.819275"
     inkscape:cx="12.008964"
     inkscape:cy="8.3425103"
     inkscape:window-width="1027"
     inkscape:window-height="666"
     inkscape:window-x="62"
     inkscape:window-y="25"
     inkscape:window-maximized="0"
     inkscape:current-layer="svg98" />
  <path
     fill-rule="evenodd"
     clip-rule="evenodd"
     d="M 6.4524669,13.612952 H 3.7884664 v 3.238283 h 2.6640005 z m 1.3320003,3.238283 c 0,0.715359 -0.5963543,1.295314 -1.3320003,1.295314 H 3.7884664 c -0.735646,0 -1.3320003,-0.579955 -1.3320003,-1.295314 v -3.238283 c 0,-0.715358 0.5963543,-1.295312 1.3320003,-1.295312 h 2.6640005 c 0.735646,0 1.3320003,0.579954 1.3320003,1.295312 z m 6.6600008,0 V 7.784043 c 0,-0.7153843 -0.596381,-1.2953133 -1.332,-1.2953133 h -2.664 c -0.7356463,0 -1.3320006,0.579929 -1.3320006,1.2953133 v 9.067192 c 0,0.715359 0.5963543,1.295314 1.3320006,1.295314 h 2.664 c 0.735619,0 1.332,-0.579955 1.332,-1.295314 z m 1.332001,0 c 0,0.715359 0.59638,1.295314 1.332,1.295314 h 2.664001 c 0.735618,0 1.332,-0.579955 1.332,-1.295314 V 1.307477 c 0,-0.71538425 -0.596382,-1.29531324 -1.332,-1.29531324 h -2.664001 c -0.73562,0 -1.332,0.57992899 -1.332,1.29531324 z M 13.112468,7.784043 h -2.664 v 9.067192 h 2.664 z M 19.77247,1.307477 h -2.664001 v 15.543758 h 2.664001 z"
     id="path96"
     style="stroke-width:0.875686" />
  <text
     xml:space="preserve"
     style="font-style:normal;font-variant:normal;font-weight:bold;font-stretch:normal;font-size:6.66667px;line-height:1.25;font-family:sans-serif;-inkscape-font-specification:'sans-serif, Bold';font-variant-ligatures:normal;font-variant-caps:normal;font-variant-numeric:normal;font-variant-east-asian:normal;word-spacing:0px"
     x="1.2217473"
     y="23.943993"
     id="text479"><tspan
       sodipodi:role="line"
       x="1.2217473"
       y="23.943993"
       id="tspan481"
       style="font-style:normal;font-variant:normal;font-weight:bold;font-stretch:normal;font-size:6.66667px;font-family:sans-serif;-inkscape-font-specification:'sans-serif, Bold';font-variant-ligatures:normal;font-variant-caps:normal;font-variant-numeric:normal;font-variant-east-asian:normal">CONN</tspan></text>
</svg>
