<?xml version="1.0" encoding="UTF-8" standalone="no"?>
<svg
   width="24"
   height="24"
   viewBox="0 0 24 24"
   version="1.1"
   id="svg13717"
   sodipodi:docname="dots-horizontal.svg"
   inkscape:version="1.1.1 (c3084ef, 2021-09-22)"
   xmlns:inkscape="http://www.inkscape.org/namespaces/inkscape"
   xmlns:sodipodi="http://sodipodi.sourceforge.net/DTD/sodipodi-0.dtd"
   xmlns="http://www.w3.org/2000/svg"
   xmlns:svg="http://www.w3.org/2000/svg">
  <defs
     id="defs13721" />
  <sodipodi:namedview
     id="namedview13719"
     pagecolor="#ffffff"
     bordercolor="#666666"
     borderopacity="1.0"
     inkscape:pageshadow="2"
     inkscape:pageopacity="0.0"
     inkscape:pagecheckerboard="0"
     showgrid="false"
     inkscape:zoom="20.166667"
     inkscape:cx="11.975207"
     inkscape:cy="12"
     inkscape:window-width="1280"
     inkscape:window-height="706"
     inkscape:window-x="0"
     inkscape:window-y="25"
     inkscape:window-maximized="0"
     inkscape:current-layer="svg13717" />
  <path
     fill-rule="evenodd"
     clip-rule="evenodd"
     d="m 16.450413,9.6694215 c 0,1.6568995 1.3431,2.9999995 3,2.9999995 1.6569,0 3,-1.3431 3,-2.9999995 0,-1.6569 -1.3431,-3 -3,-3 -1.6569,0 -3,1.3431 -3,3 z m 1.5,0 c 0,0.8283995 0.6716,1.4999995 1.5,1.4999995 0.8284,0 1.5,-0.6716 1.5,-1.4999995 0,-0.8284 -0.6716,-1.5 -1.5,-1.5 -0.8284,0 -1.5,0.6716 -1.5,1.5 z"
     id="path13711" />
  <path
     fill-rule="evenodd"
     clip-rule="evenodd"
     d="m 8.9504132,9.6694215 c 0,1.6568995 1.3430998,2.9999995 2.9999998,2.9999995 1.6569,0 3,-1.3431 3,-2.9999995 0,-1.6569 -1.3431,-3 -3,-3 -1.6569,0 -2.9999998,1.3431 -2.9999998,3 z m 1.4999998,0 c 0,0.8283995 0.6716,1.4999995 1.5,1.4999995 0.8284,0 1.5,-0.6716 1.5,-1.4999995 0,-0.8284 -0.6716,-1.5 -1.5,-1.5 -0.8284,0 -1.5,0.6716 -1.5,1.5 z"
     id="path13713" />
  <path
     fill-rule="evenodd"
     clip-rule="evenodd"
     d="m 4.4504132,12.669421 c -1.65685,0 -3,-1.3431 -3,-2.9999995 0,-1.6569 1.34315,-3 3,-3 1.65685,0 3,1.3431 3,3 0,1.6568995 -1.34315,2.9999995 -3,2.9999995 z m 0,-1.5 c -0.82843,0 -1.5,-0.6716 -1.5,-1.4999995 0,-0.8284 0.67157,-1.5 1.5,-1.5 0.82843,0 1.5,0.6716 1.5,1.5 0,0.8283995 -0.67157,1.4999995 -1.5,1.4999995 z"
     id="path13715" />
  <text
     xml:space="preserve"
     style="font-style:normal;font-variant:normal;font-weight:bold;font-stretch:normal;font-size:6.66667px;line-height:1.25;font-family:sans-serif;-inkscape-font-specification:'sans-serif, Bold';font-variant-ligatures:normal;font-variant-caps:normal;font-variant-numeric:normal;font-variant-east-asian:normal"
     x="1.2982218"
     y="23.200363"
     id="text479"><tspan
       sodipodi:role="line"
       x="1.2982218"
       y="23.200363"
       id="tspan481"
       style="font-style:normal;font-variant:normal;font-weight:bold;font-stretch:normal;font-size:6.66667px;font-family:sans-serif;-inkscape-font-specification:'sans-serif, Bold';font-variant-ligatures:normal;font-variant-caps:normal;font-variant-numeric:normal;font-variant-east-asian:normal">MORE</tspan></text>
</svg>
