<?xml version="1.0" encoding="UTF-8" standalone="no"?>
<svg
   width="24"
   height="24"
   viewBox="0 0 24 24"
   version="1.1"
   id="svg105"
   sodipodi:docname="enter-fullscreen.svg"
   inkscape:version="1.1.1 (c3084ef, 2021-09-22)"
   xmlns:inkscape="http://www.inkscape.org/namespaces/inkscape"
   xmlns:sodipodi="http://sodipodi.sourceforge.net/DTD/sodipodi-0.dtd"
   xmlns="http://www.w3.org/2000/svg"
   xmlns:svg="http://www.w3.org/2000/svg">
  <defs
     id="defs109" />
  <sodipodi:namedview
     id="namedview107"
     pagecolor="#ffffff"
     bordercolor="#666666"
     borderopacity="1.0"
     inkscape:pageshadow="2"
     inkscape:pageopacity="0.0"
     inkscape:pagecheckerboard="0"
     showgrid="false"
     inkscape:zoom="20.166667"
     inkscape:cx="11.975207"
     inkscape:cy="16.512397"
     inkscape:window-width="1280"
     inkscape:window-height="706"
     inkscape:window-x="0"
     inkscape:window-y="25"
     inkscape:window-maximized="0"
     inkscape:current-layer="svg105" />
  <path
     d="m 4.0625738,0.35950413 c -0.7306225,0 -1.3229044,0.5843531 -1.3229044,1.30519477 v 4.5681818 c 0,0.3604165 0.2961454,0.6525974 0.6614522,0.6525974 0.3653068,0 0.6614522,-0.2921809 0.6614522,-0.6525974 V 1.6646989 h 4.6301653 c 0.3653068,0 0.6614521,-0.2921809 0.6614521,-0.6525974 0,-0.36041647 -0.2961453,-0.65259737 -0.6614521,-0.65259737 z"
     id="path97"
     style="stroke-width:0.876013" />
  <path
     d="m 19.937426,18.632231 c 0.730596,0 1.322904,-0.584379 1.322904,-1.305195 v -4.568181 c 0,-0.360408 -0.296154,-0.652598 -0.661452,-0.652598 -0.365298,0 -0.661452,0.29219 -0.661452,0.652598 v 4.568181 H 15.30726 c -0.365297,0 -0.661452,0.29219 -0.661452,0.652598 0,0.360408 0.296155,0.652597 0.661452,0.652597 z"
     id="path99"
     style="stroke-width:0.876013" />
  <path
     d="m 4.0625738,18.632231 c -0.7306225,0 -1.3229044,-0.584379 -1.3229044,-1.305195 v -4.568181 c 0,-0.360408 0.2961454,-0.652598 0.6614522,-0.652598 0.3653068,0 0.6614522,0.29219 0.6614522,0.652598 v 4.568181 h 4.6301653 c 0.3653068,0 0.6614521,0.29219 0.6614521,0.652598 0,0.360408 -0.2961453,0.652597 -0.6614521,0.652597 z"
     id="path101"
     style="stroke-width:0.876013" />
  <path
     d="m 21.26033,1.6646989 c 0,-0.72084167 -0.592308,-1.30519477 -1.322904,-1.30519477 H 15.30726 c -0.365297,0 -0.661452,0.2921809 -0.661452,0.65259737 0,0.3604165 0.296155,0.6525974 0.661452,0.6525974 h 4.630166 v 4.5681818 c 0,0.3604165 0.296154,0.6525974 0.661452,0.6525974 0.365298,0 0.661452,-0.2921809 0.661452,-0.6525974 z"
     id="path103"
     style="stroke-width:0.876013" />
  <text
     xml:space="preserve"
     style="font-style:normal;font-variant:normal;font-weight:bold;font-stretch:normal;font-size:6.66667px;line-height:1.25;font-family:sans-serif;-inkscape-font-specification:'sans-serif, Bold';font-variant-ligatures:normal;font-variant-caps:normal;font-variant-numeric:normal;font-variant-east-asian:normal"
     x="3.7775605"
     y="24.043339"
     id="text479"><tspan
       sodipodi:role="line"
       x="3.7775605"
       y="24.043339"
       id="tspan481"
       style="font-style:normal;font-variant:normal;font-weight:bold;font-stretch:normal;font-size:6.66667px;font-family:sans-serif;-inkscape-font-specification:'sans-serif, Bold';font-variant-ligatures:normal;font-variant-caps:normal;font-variant-numeric:normal;font-variant-east-asian:normal">MAX</tspan></text>
</svg>
