<?xml version="1.0" encoding="UTF-8" standalone="no"?>
<svg
   width="24"
   height="24"
   viewBox="0 0 24 24"
   version="1.1"
   id="svg5155"
   sodipodi:docname="exit-fullscreen.svg"
   inkscape:version="1.1.1 (c3084ef, 2021-09-22)"
   xmlns:inkscape="http://www.inkscape.org/namespaces/inkscape"
   xmlns:sodipodi="http://sodipodi.sourceforge.net/DTD/sodipodi-0.dtd"
   xmlns="http://www.w3.org/2000/svg"
   xmlns:svg="http://www.w3.org/2000/svg">
  <defs
     id="defs5159" />
  <sodipodi:namedview
     id="namedview5157"
     pagecolor="#ffffff"
     bordercolor="#666666"
     borderopacity="1.0"
     inkscape:pageshadow="2"
     inkscape:pageopacity="0.0"
     inkscape:pagecheckerboard="0"
     showgrid="false"
     inkscape:zoom="20.166667"
     inkscape:cx="11.975207"
     inkscape:cy="12.049587"
     inkscape:window-width="1148"
     inkscape:window-height="658"
     inkscape:window-x="65"
     inkscape:window-y="55"
     inkscape:window-maximized="0"
     inkscape:current-layer="svg5155" />
  <path
     d="m 13.450413,6.322314 c 0,0.82843 0.6716,1.5 1.5,1.5 h 5.25 c 0.4142,0 0.75,-0.3358 0.75,-0.75 0,-0.41421 -0.3358,-0.75 -0.75,-0.75 h -5.25 v -5.25 c 0,-0.41420995 -0.3358,-0.74999995 -0.75,-0.74999995 -0.4142,0 -0.75,0.33579 -0.75,0.74999995 z"
     id="path5147" />
  <path
     d="m 10.450413,12.322314 c 0,-0.8284 -0.6715698,-1.5 -1.4999998,-1.5 h -5.25 c -0.41421,0 -0.75,0.3358 -0.75,0.75 0,0.4142 0.33579,0.75 0.75,0.75 h 5.25 v 5.25 c 0,0.4142 0.33579,0.75 0.75,0.75 0.4141998,0 0.7499998,-0.3358 0.7499998,-0.75 z"
     id="path5149" />
  <path
     d="m 10.450413,6.322314 c 0,0.82843 -0.6715698,1.5 -1.4999998,1.5 h -5.25 c -0.41421,0 -0.75,-0.3358 -0.75,-0.75 0,-0.41421 0.33579,-0.75 0.75,-0.75 h 5.25 v -5.25 c 0,-0.41420995 0.33579,-0.74999995 0.75,-0.74999995 0.4141998,0 0.7499998,0.33579 0.7499998,0.74999995 z"
     id="path5151" />
  <path
     d="m 14.950413,10.822314 c -0.8284,0 -1.5,0.6716 -1.5,1.5 v 5.25 c 0,0.4142 0.3358,0.75 0.75,0.75 0.4142,0 0.75,-0.3358 0.75,-0.75 v -5.25 h 5.25 c 0.4142,0 0.75,-0.3358 0.75,-0.75 0,-0.4142 -0.3358,-0.75 -0.75,-0.75 z"
     id="path5153" />
  <text
     xml:space="preserve"
     style="font-style:normal;font-variant:normal;font-weight:bold;font-stretch:normal;font-size:6.66667px;line-height:1.25;font-family:sans-serif;-inkscape-font-specification:'sans-serif, Bold';font-variant-ligatures:normal;font-variant-caps:normal;font-variant-numeric:normal;font-variant-east-asian:normal"
     x="4.2238417"
     y="23.844994"
     id="text479"><tspan
       sodipodi:role="line"
       x="4.2238417"
       y="23.844994"
       style="font-style:normal;font-variant:normal;font-weight:bold;font-stretch:normal;font-size:6.66667px;font-family:sans-serif;-inkscape-font-specification:'sans-serif, Bold';font-variant-ligatures:normal;font-variant-caps:normal;font-variant-numeric:normal;font-variant-east-asian:normal"
       id="tspan6373">MIN</tspan></text>
</svg>
