<?xml version="1.0" encoding="UTF-8" standalone="no"?>
<svg
   width="24"
   height="24"
   viewBox="0 0 24 24"
   version="1.1"
   id="svg15886"
   sodipodi:docname="gear.svg"
   inkscape:version="1.1.1 (c3084ef, 2021-09-22)"
   xmlns:inkscape="http://www.inkscape.org/namespaces/inkscape"
   xmlns:sodipodi="http://sodipodi.sourceforge.net/DTD/sodipodi-0.dtd"
   xmlns="http://www.w3.org/2000/svg"
   xmlns:svg="http://www.w3.org/2000/svg">
  <defs
     id="defs15890" />
  <sodipodi:namedview
     id="namedview15888"
     pagecolor="#ffffff"
     bordercolor="#666666"
     borderopacity="1.0"
     inkscape:pageshadow="2"
     inkscape:pageopacity="0.0"
     inkscape:pagecheckerboard="0"
     showgrid="false"
     inkscape:zoom="20.166667"
     inkscape:cx="11.975207"
     inkscape:cy="12.347107"
     inkscape:window-width="1280"
     inkscape:window-height="706"
     inkscape:window-x="1"
     inkscape:window-y="25"
     inkscape:window-maximized="0"
     inkscape:current-layer="svg15886" />
  <path
     fill-rule="evenodd"
     clip-rule="evenodd"
     d="m 15.393103,9.3966945 c 0,1.8412485 -1.530215,3.3338245 -3.417897,3.3338245 -1.887627,0 -3.4178703,-1.492576 -3.4178703,-3.3338245 0,-1.8412231 1.5302433,-3.3338255 3.4178703,-3.3338255 1.887682,0 3.417897,1.4926024 3.417897,3.3338255 z m -1.367159,0 c 0,1.1046955 -0.918093,2.0002945 -2.050738,2.0002945 -1.132555,0 -2.0507113,-0.895599 -2.0507113,-2.0002945 0,-1.1046966 0.9181563,-2.0002954 2.0507113,-2.0002954 1.132645,0 2.050738,0.8955988 2.050738,2.0002954 z"
     id="path15882"
     style="stroke-width:0.90016" />
  <path
     fill-rule="evenodd"
     clip-rule="evenodd"
     d="m 9.2649772,1.7933412 c 0,-0.95051363 0.7899628,-1.73135773 1.7644278,-1.73135773 h 1.891601 c 0.974511,0 1.764456,0.7808441 1.764456,1.73134883 0,1.3153408 1.462404,2.153011 2.627679,1.4909756 0.838616,-0.4764881 1.914661,-0.1952644 2.396721,0.6264035 l 0.961751,1.6391841 c 0.48361,0.8242994 0.195048,1.8747655 -0.646302,2.3528005 -1.173934,0.6669425 -1.173934,2.321053 0,2.987996 0.84135,0.478026 1.129912,1.528492 0.646302,2.352792 l -0.961751,1.639175 c -0.48206,0.821721 -1.558105,1.102918 -2.396721,0.626403 -1.165275,-0.661964 -2.627679,0.175671 -2.627679,1.490976 0,0.95054 -0.789945,1.731366 -1.764456,1.731366 h -1.891601 c -0.974465,0 -1.7644278,-0.780826 -1.7644278,-1.731366 0,-1.315305 -1.4624135,-2.153029 -2.6276704,-1.490976 C 5.7986276,15.985577 4.722555,15.70438 4.2404856,14.882659 L 3.2787895,13.243484 c -0.4836188,-0.8243 -0.1950571,-1.874766 0.6463017,-2.352792 1.1738791,-0.666943 1.1738791,-2.3210535 0,-2.987996 C 3.0837324,7.4246699 2.7951707,6.3741949 3.2787895,5.5498955 L 4.2404856,3.9107292 C 4.722555,3.0890524 5.7986276,2.8078287 6.6373068,3.2843168 7.8025637,3.9463611 9.2649772,3.1086908 9.2649772,1.7933412 Z M 11.029405,1.3955136 h 1.891601 c 0.208811,0 0.397297,0.1734212 0.397297,0.3978187 0,2.3203246 2.585206,3.8350992 4.682884,2.6432789 0.182743,-0.1037931 0.417074,-0.042531 0.522072,0.1364468 l 0.961751,1.6391841 c 0.110649,0.1885345 0.04457,0.4288011 -0.147835,0.5381328 -2.079267,1.1813032 -2.079267,4.1113351 0,5.2926651 0.192404,0.109349 0.258484,0.349562 0.147835,0.538124 l -0.961751,1.639175 c -0.104998,0.17896 -0.339329,0.240213 -0.522072,0.136464 -2.097678,-1.19182 -4.682884,0.322893 -4.682884,2.643235 0,0.224389 -0.188486,0.397836 -0.397297,0.397836 h -1.891601 c -0.20881,0 -0.397296,-0.173447 -0.397296,-0.397836 0,-2.320342 -2.5852066,-3.835055 -4.6829207,-2.643235 -0.1826889,0.103749 -0.4170929,0.0425 -0.5220998,-0.136464 L 4.4653833,12.581164 C 4.354771,12.392602 4.4207683,12.152389 4.6132096,12.04304 c 2.0792666,-1.18133 2.0792666,-4.1113619 0,-5.2926651 C 4.4207683,6.6410432 4.354771,6.4007766 4.4653833,6.2122421 L 5.4270885,4.5730758 C 5.5320954,4.3940894 5.7664994,4.332827 5.9491883,4.4366201 8.0469115,5.6284493 10.632109,4.1136836 10.632109,1.7933412 c 0,-0.2244064 0.188486,-0.3978276 0.397296,-0.3978276 z"
     id="path15884"
     style="stroke-width:0.90016" />
  <text
     xml:space="preserve"
     style="font-style:normal;font-variant:normal;font-weight:bold;font-stretch:normal;font-size:5.33333px;line-height:1.25;font-family:sans-serif;-inkscape-font-specification:'sans-serif, Bold';font-variant-ligatures:normal;font-variant-caps:normal;font-variant-numeric:normal;font-variant-east-asian:normal"
     x="0.20731276"
     y="23.745817"
     id="text479"><tspan
       sodipodi:role="line"
       x="0.20731276"
       y="23.745817"
       id="tspan481"
       style="font-style:normal;font-variant:normal;font-weight:bold;font-stretch:normal;font-size:5.33333px;font-family:sans-serif;-inkscape-font-specification:'sans-serif, Bold';font-variant-ligatures:normal;font-variant-caps:normal;font-variant-numeric:normal;font-variant-east-asian:normal">CONFIG</tspan></text>
</svg>
