<?xml version="1.0" encoding="UTF-8" standalone="no"?>
<!-- Generated by IcoMoon.io -->

<svg
   version="1.1"
   width="40"
   height="40"
   viewBox="0 0 40 40"
   id="svg6"
   sodipodi:docname="HD.svg"
   inkscape:version="1.1.1 (c3084ef, 2021-09-22)"
   xmlns:inkscape="http://www.inkscape.org/namespaces/inkscape"
   xmlns:sodipodi="http://sodipodi.sourceforge.net/DTD/sodipodi-0.dtd"
   xmlns="http://www.w3.org/2000/svg"
   xmlns:svg="http://www.w3.org/2000/svg"
   xmlns:rdf="http://www.w3.org/1999/02/22-rdf-syntax-ns#"
   xmlns:cc="http://creativecommons.org/ns#"
   xmlns:dc="http://purl.org/dc/elements/1.1/">
  <defs
     id="defs10" />
  <sodipodi:namedview
     id="namedview8"
     pagecolor="#ffffff"
     bordercolor="#666666"
     borderopacity="1.0"
     inkscape:pageshadow="2"
     inkscape:pageopacity="0.0"
     inkscape:pagecheckerboard="0"
     showgrid="false"
     inkscape:zoom="10.982252"
     inkscape:cx="18.256729"
     inkscape:cy="19.167289"
     inkscape:window-width="1280"
     inkscape:window-height="725"
     inkscape:window-x="145"
     inkscape:window-y="29"
     inkscape:window-maximized="0"
     inkscape:current-layer="svg6"
     width="40px" />
  <title
     id="title2">HD</title>
  <path
     d="m 20.234104,24.71552 c -6.900782,0 -12.4943435,-5.287827 -12.4943435,-11.811424 0,-6.5235971 5.5935615,-11.8114239 12.4943435,-11.8114239 6.900782,0 12.494344,5.2878268 12.494344,11.8114239 0,6.523597 -5.593562,11.811424 -12.494344,11.811424 z M 19.486006,15.856952 V 9.9556699 H 18.161605 V 12.335671 H 15.311331 V 9.9556699 h -1.324399 v 5.9012821 h 1.324399 v -2.466373 h 2.850274 v 2.466373 z M 21.021247,9.95124 v 5.905712 h 2.491061 c 1.894454,0 2.968968,-1.075578 2.968968,-2.993458 0,-1.848488 -1.087788,-2.912254 -2.968968,-2.912254 z m 1.324401,1.054908 v 3.795158 h 0.955818 c 1.170564,0 1.828859,-0.671036 1.828859,-1.917881 0,-1.194429 -0.67938,-1.877277 -1.828859,-1.877277 z"
     id="path4"
     style="stroke-width:0.759255" />
  <text
     xml:space="preserve"
     style="font-style:normal;font-weight:normal;font-size:8px;line-height:1.25;font-family:sans-serif;fill:#000000;fill-opacity:1;stroke:none"
     x="1.6390079"
     y="38.698803"
     id="text310"><tspan
       sodipodi:role="line"
       id="tspan308"
       x="1.6390079"
       y="38.698803"
       style="font-style:normal;font-variant:normal;font-weight:bold;font-stretch:normal;font-size:8px;font-family:sans-serif;-inkscape-font-specification:'sans-serif Bold'">QUALITY</tspan></text>
  <metadata
     id="metadata16">
    <rdf:RDF>
      <cc:Work
         rdf:about="">
        <dc:title>HD</dc:title>
      </cc:Work>
    </rdf:RDF>
  </metadata>
</svg>
