<?xml version="1.0" encoding="UTF-8" standalone="no"?>
<svg
   width="40"
   height="40"
   viewBox="0 0 40 40"
   fill="none"
   version="1.1"
   id="svg25599"
   sodipodi:docname="horizontal-points.svg"
   inkscape:version="1.1.1 (c3084ef, 2021-09-22)"
   xmlns:inkscape="http://www.inkscape.org/namespaces/inkscape"
   xmlns:sodipodi="http://sodipodi.sourceforge.net/DTD/sodipodi-0.dtd"
   xmlns="http://www.w3.org/2000/svg"
   xmlns:svg="http://www.w3.org/2000/svg">
  <defs
     id="defs25603" />
  <sodipodi:namedview
     id="namedview25601"
     pagecolor="#ffffff"
     bordercolor="#666666"
     borderopacity="1.0"
     inkscape:pageshadow="2"
     inkscape:pageopacity="0.0"
     inkscape:pagecheckerboard="0"
     showgrid="false"
     inkscape:zoom="11.295455"
     inkscape:cx="17.927565"
     inkscape:cy="21.911468"
     inkscape:window-width="1280"
     inkscape:window-height="725"
     inkscape:window-x="0"
     inkscape:window-y="23"
     inkscape:window-maximized="0"
     inkscape:current-layer="svg25599" />
  <path
     fill-rule="evenodd"
     clip-rule="evenodd"
     d="m 10.331719,15.879029 c 0,1.9958 -1.6179481,3.613925 -3.613807,3.613925 -1.9958392,0 -3.6137873,-1.618125 -3.6137873,-3.613925 0,-1.9958 1.6179481,-3.613748 3.6137873,-3.613748 1.9958589,0 3.613807,1.617948 3.613807,3.613748 z m 9.034478,3.613925 c 1.9958,0 3.613729,-1.618125 3.613729,-3.613925 0,-1.9958 -1.617929,-3.613748 -3.613729,-3.613748 -1.995839,0 -3.613787,1.617948 -3.613787,3.613748 0,1.9958 1.617948,3.613925 3.613787,3.613925 z m 12.648345,0 c 1.995799,0 3.613728,-1.618125 3.613728,-3.613925 0,-1.9958 -1.617929,-3.613748 -3.613728,-3.613748 -1.995997,0 -3.613926,1.617948 -3.613926,3.613748 0,1.9958 1.617929,3.613925 3.613926,3.613925 z"
     id="path25597"
     style="fill:#000000;stroke-width:1.97116" />
  <text
     xml:space="preserve"
     style="font-size:9.33333px;line-height:1.25;font-family:sans-serif;fill:#000000"
     x="5.046278"
     y="39.042252"
     id="text25891"><tspan
       sodipodi:role="line"
       id="tspan25889"
       x="5.046278"
       y="39.042252"
       style="font-style:normal;font-variant:normal;font-weight:bold;font-stretch:normal;font-size:9.33333px;font-family:sans-serif;-inkscape-font-specification:'sans-serif Bold';fill:#000000">MORE</tspan></text>
</svg>
