<?xml version="1.0" encoding="UTF-8" standalone="no"?>
<svg
   width="24"
   height="24"
   viewBox="0 0 24 24"
   version="1.1"
   id="svg14902"
   sodipodi:docname="host.svg"
   inkscape:version="1.1.1 (c3084ef, 2021-09-22)"
   xmlns:inkscape="http://www.inkscape.org/namespaces/inkscape"
   xmlns:sodipodi="http://sodipodi.sourceforge.net/DTD/sodipodi-0.dtd"
   xmlns="http://www.w3.org/2000/svg"
   xmlns:svg="http://www.w3.org/2000/svg">
  <defs
     id="defs14906" />
  <sodipodi:namedview
     id="namedview14904"
     pagecolor="#ffffff"
     bordercolor="#666666"
     borderopacity="1.0"
     inkscape:pageshadow="2"
     inkscape:pageopacity="0.0"
     inkscape:pagecheckerboard="0"
     showgrid="false"
     inkscape:zoom="20.166667"
     inkscape:cx="11.975207"
     inkscape:cy="12"
     inkscape:window-width="1280"
     inkscape:window-height="706"
     inkscape:window-x="0"
     inkscape:window-y="25"
     inkscape:window-maximized="0"
     inkscape:current-layer="svg14902" />
  <path
     fill-rule="evenodd"
     clip-rule="evenodd"
     d="m 12.061026,4.7237288 c 1.1679,-0.08214 2.0898,-1.0556 2.0898,-2.24439 0,-1.24264 -1.0074,-2.24999996 -2.25,-2.24999996 -1.2426,0 -2.2499996,1.00735996 -2.2499996,2.24999996 0,1.18151 0.9106996,2.15032 2.0683996,2.24278 -0.2987,-0.02382 -0.5809,-0.10591 -0.8353,-0.23503 -1.1249396,1.82918 -2.7896396,2.32405 -4.2384896,2.33465 -0.08097,-1.16907 -1.055,-2.0924 -2.24461,-2.0924 -1.24264,0 -2.25,1.00736 -2.25,2.25 0,1.2426 1.00736,2.25 2.25,2.25 0.82135,0 1.53995,-0.44 1.93279,-1.0973 -0.03722,0.0623 -0.07737,0.1227 -0.12026,0.1809 0.36648,0.017 0.7525,0.0111 1.14927,-0.0286 1.18276,-0.1182 2.49604,-0.5427 3.6299996,-1.5822 0.3818,-0.34997 0.7287,-0.75639 1.0371,-1.2222 0.3438,0.47743 0.7179,0.89009 1.1185,1.2426 1.1455,1.0081 2.4118,1.4397 3.5644,1.561 0.3034,0.032 0.5983,0.0425 0.8814,0.037 -0.0193,-0.026 -0.0381,-0.0525 -0.0563,-0.0793 0.4046,0.5963 1.0881,0.9881 1.8631,0.9881 1.2426,0 2.25,-1.0074 2.25,-2.25 0,-1.24264 -1.0074,-2.25 -2.25,-2.25 -1.1871,0 -2.1595,0.91938 -2.244,2.085 -1.3315,-0.0692 -2.8648,-0.6297 -4.0603,-2.42851 -0.3039,0.19103 -0.6568,0.31129 -1.0355,0.3379 z m -0.1602,-1.49439 c 0.4142,0 0.75,-0.33579 0.75,-0.75 0,-0.41421 -0.3358,-0.75 -0.75,-0.75 -0.4142,0 -0.75,0.33579 -0.75,0.75 0,0.41421 0.3358,0.75 0.75,0.75 z m 8.25,3.75 c 0,0.4142 -0.3358,0.75 -0.75,0.75 -0.4142,0 -0.75,-0.3358 -0.75,-0.75 0,-0.4142 0.3358,-0.75 0.75,-0.75 0.4142,0 0.75,0.3358 0.75,0.75 z m -15.7499996,0.75 c 0.41421,0 0.75,-0.3358 0.75,-0.75 0,-0.4142 -0.33579,-0.75 -0.75,-0.75 -0.41421,0 -0.75,0.3358 -0.75,0.75 0,0.4142 0.33579,0.75 0.75,0.75 z"
     id="path14894" />
  <path
     d="m 17.849326,8.6089388 c 0.365,0.3477 0.8467,0.574 1.3804,0.6141 l -0.0698,0.2269 c -0.0968,0.3147 -0.3876,0.5294 -0.7168,0.5294 -0.5046,0 -0.8653,-0.4883 -0.7169,-0.9706 z"
     id="path14896" />
  <path
     d="m 12.650826,14.479439 c 0.4142,0 0.75,0.3358 0.75,0.75 0,0.4142 -0.3358,0.75 -0.75,0.75 H 7.7587464 c -0.65851,0 -1.24001,-0.4295 -1.43367,-1.0589 l -1.75305,-5.6975002 c 0.53367,-0.0401 1.0154,-0.2664 1.38044,-0.6141 l 1.80628,5.8705002 z"
     id="path14898" />
  <path
     d="m 11.150826,14.479539 c -0.4142,0 -0.75,0.3358 -0.75,0.75 0,0.4142 0.3358,0.75 0.75,0.75 h 4.8921 c 0.6585,0 1.24,-0.4295 1.4336,-1.0589 l 1.7532,-5.6976002 c -0.5337,-0.0401 -1.0154,-0.2664 -1.3804,-0.6141 l -1.8064,5.8706002 z"
     id="path14900" />
  <text
     xml:space="preserve"
     style="font-style:normal;font-variant:normal;font-weight:bold;font-stretch:normal;font-size:6.66667px;line-height:1.25;font-family:sans-serif;-inkscape-font-specification:'sans-serif, Bold';font-variant-ligatures:normal;font-variant-caps:normal;font-variant-numeric:normal;font-variant-east-asian:normal"
     x="2.0916107"
     y="23.54747"
     id="text479"><tspan
       sodipodi:role="line"
       x="2.0916107"
       y="23.54747"
       id="tspan481"
       style="font-style:normal;font-variant:normal;font-weight:bold;font-stretch:normal;font-size:6.66667px;font-family:sans-serif;-inkscape-font-specification:'sans-serif, Bold';font-variant-ligatures:normal;font-variant-caps:normal;font-variant-numeric:normal;font-variant-east-asian:normal">HOST</tspan></text>
</svg>
