<?xml version="1.0" encoding="UTF-8" standalone="no"?>
<svg
   width="24"
   height="24"
   viewBox="0 0 24 24"
   version="1.1"
   id="svg12965"
   sodipodi:docname="image.svg"
   inkscape:version="1.1.1 (c3084ef, 2021-09-22)"
   xmlns:inkscape="http://www.inkscape.org/namespaces/inkscape"
   xmlns:sodipodi="http://sodipodi.sourceforge.net/DTD/sodipodi-0.dtd"
   xmlns="http://www.w3.org/2000/svg"
   xmlns:svg="http://www.w3.org/2000/svg">
  <defs
     id="defs12969" />
  <sodipodi:namedview
     id="namedview12967"
     pagecolor="#ffffff"
     bordercolor="#666666"
     borderopacity="1.0"
     inkscape:pageshadow="2"
     inkscape:pageopacity="0.0"
     inkscape:pagecheckerboard="0"
     showgrid="false"
     inkscape:zoom="20.166667"
     inkscape:cx="11.975207"
     inkscape:cy="12"
     inkscape:window-width="1280"
     inkscape:window-height="706"
     inkscape:window-x="0"
     inkscape:window-y="25"
     inkscape:window-maximized="0"
     inkscape:current-layer="svg12965" />
  <path
     fill-rule="evenodd"
     clip-rule="evenodd"
     d="m 15.86954,7.9994097 c 1.433893,0 2.596222,-1.1623719 2.596222,-2.596222 0,-1.4338501 -1.162329,-2.5962219 -2.596222,-2.5962219 -1.433894,0 -2.596222,1.1623718 -2.596222,2.5962219 0,1.4338501 1.162328,2.596222 2.596222,2.596222 z m 0,-1.298111 c 0.716903,0 1.298111,-0.5811816 1.298111,-1.298111 0,-0.7169294 -0.581208,-1.298111 -1.298111,-1.298111 -0.716904,0 -1.298111,0.5811816 -1.298111,1.298111 0,0.7169294 0.581207,1.298111 1.298111,1.298111 z"
     id="path12961"
     style="stroke-width:0.865407" />
  <path
     fill-rule="evenodd"
     clip-rule="evenodd"
     d="m 2.8884298,12.542885 v 3.245191 c 0,1.433893 1.1623718,2.596222 2.596222,2.596222 H 18.465762 c 1.433893,0 2.596222,-1.162329 2.596222,-2.596222 V 2.8069658 c 0,-1.4338502 -1.162329,-2.596222 -2.596222,-2.596222 H 5.4846518 c -1.4338502,0 -2.596222,1.1623718 -2.596222,2.596222 v 9.7359192 c 0,8.6e-5 0,-8.7e-5 0,0 z M 18.465762,1.5088548 H 5.4846518 c -0.7169294,0 -1.298111,0.5811816 -1.298111,1.298111 V 10.975805 L 7.6219223,7.5404582 c 0.2534691,-0.2534691 0.6644337,-0.2534691 0.9179029,0 l 3.4353818,3.4353468 1.488241,-1.4881542 c 0.253478,-0.253478 0.664373,-0.253478 0.917851,0 l 5.382574,5.3824872 V 2.8069658 c 0,-0.7169294 -0.581208,-1.298111 -1.298111,-1.298111 z m 1.088249,14.9872102 -5.631638,-5.631551 -1.488241,1.488154 c -0.253477,0.253478 -0.664373,0.253478 -0.917851,0 L 8.0808737,8.9173468 4.1865408,12.81168 v 2.976396 c 0,0.716903 0.5811816,1.298111 1.298111,1.298111 H 18.465762 c 0.455723,0 0.85658,-0.234872 1.088249,-0.590122 z"
     id="path12963"
     style="stroke-width:0.865407" />
  <text
     xml:space="preserve"
     style="font-style:normal;font-variant:normal;font-weight:bold;font-stretch:normal;font-size:6.66667px;line-height:1.25;font-family:sans-serif;-inkscape-font-specification:'sans-serif, Bold';font-variant-ligatures:normal;font-variant-caps:normal;font-variant-numeric:normal;font-variant-east-asian:normal"
     x="-0.53648883"
     y="23.944166"
     id="text479"><tspan
       sodipodi:role="line"
       x="-0.53648883"
       y="23.944166"
       id="tspan481"
       style="font-style:normal;font-variant:normal;font-weight:bold;font-stretch:normal;font-size:6.66667px;font-family:sans-serif;-inkscape-font-specification:'sans-serif, Bold';font-variant-ligatures:normal;font-variant-caps:normal;font-variant-numeric:normal;font-variant-east-asian:normal">IMAGE</tspan></text>
</svg>
