<?xml version="1.0" encoding="UTF-8" standalone="no"?>
<svg
   width="24"
   height="24"
   viewBox="0 0 24 24"
   version="1.1"
   id="svg15"
   sodipodi:docname="mic-slash.svg"
   inkscape:version="1.1.1 (c3084ef, 2021-09-22)"
   xmlns:inkscape="http://www.inkscape.org/namespaces/inkscape"
   xmlns:sodipodi="http://sodipodi.sourceforge.net/DTD/sodipodi-0.dtd"
   xmlns="http://www.w3.org/2000/svg"
   xmlns:svg="http://www.w3.org/2000/svg">
  <defs
     id="defs19" />
  <sodipodi:namedview
     id="namedview17"
     pagecolor="#ffffff"
     bordercolor="#666666"
     borderopacity="1.0"
     inkscape:pageshadow="2"
     inkscape:pageopacity="0.0"
     inkscape:pagecheckerboard="0"
     showgrid="false"
     inkscape:zoom="15.28308"
     inkscape:cx="11.974026"
     inkscape:cy="11.974026"
     inkscape:window-width="1035"
     inkscape:window-height="584"
     inkscape:window-x="217"
     inkscape:window-y="25"
     inkscape:window-maximized="0"
     inkscape:current-layer="svg15" />
  <path
     fill-rule="evenodd"
     clip-rule="evenodd"
     d="M 15.545452,4.6048504 V 4.218418 c 0,-2.1859901 -1.820445,-3.95808742 -4.066115,-3.95808742 -2.2456514,0 -4.0661143,1.77209732 -4.0661143,3.95808742 v 5.2774496 c 0,0.8548594 0.2783843,1.6463894 0.7517253,2.2934044 L 7.1964626,12.732 C 6.4828142,11.838352 6.057851,10.715399 6.057851,9.4958676 V 8.1765053 c 0,-0.3643199 -0.3034135,-0.6596812 -0.6776858,-0.6596812 -0.3742724,0 -0.6776859,0.2953613 -0.6776859,0.6596812 v 1.3193623 c 0,1.5841154 0.5735662,3.0377004 1.5295731,4.1749034 l -2.6864551,2.615152 c -0.2646499,0.257628 -0.2646499,0.67525 0,0.932877 0.2646499,0.257628 0.6937425,0.257628 0.9583924,0 L 19.413051,2.7058393 c 0.264659,-0.2576187 0.264659,-0.6753113 0,-0.93293 -0.264659,-0.2576187 -0.69368,-0.2576187 -0.958339,0 z M 14.190081,5.9242129 V 4.218418 c 0,-1.4573238 -1.2136,-2.6387249 -2.710744,-2.6387249 -1.4971428,0 -2.7107426,1.1814011 -2.7107426,2.6387249 v 5.2774496 c 0,0.489396 0.1368473,0.9475664 0.3753114,1.3404724 z"
     id="path9"
     style="stroke-width:0.891497" />
  <path
     d="m 9.4828301,14.403897 c 0.6179139,0.238452 1.2915329,0.369421 1.9965069,0.369421 2.994287,0 5.421487,-2.362802 5.421487,-5.2774504 V 8.1765053 c 0,-0.3643199 0.303423,-0.6596812 0.677686,-0.6596812 0.374263,0 0.677686,0.2953613 0.677686,0.6596812 v 1.3193623 c 0,3.4206674 -2.6746,6.2332844 -6.099173,6.5642684 v 2.011588 c 0,0.36432 -0.303422,0.659681 -0.677686,0.659681 -0.374263,0 -0.677686,-0.295361 -0.677686,-0.659681 V 16.060136 C 10.106346,15.992937 9.4419701,15.823443 8.8246074,15.56731 8.4042253,15.392891 8.3357158,14.864882 8.6588454,14.550346 8.8735453,14.341359 9.2005513,14.295005 9.4828301,14.403897 Z"
     id="path11"
     style="stroke-width:0.891497" />
  <path
     d="m 14.867767,8.8361866 c -0.374264,0 -0.677686,0.295361 -0.677686,0.659681 0,1.4573684 -1.2136,2.6387254 -2.710744,2.6387254 -0.374263,0 -0.677686,0.295361 -0.677686,0.659681 0,0.36432 0.303423,0.659682 0.677686,0.659682 2.24567,0 4.066115,-1.77208 4.066115,-3.9580884 0,-0.36432 -0.303422,-0.659681 -0.677685,-0.659681 z"
     id="path13"
     style="stroke-width:0.891497" />
  <text
     xml:space="preserve"
     style="font-style:normal;font-variant:normal;font-weight:bold;font-stretch:normal;font-size:6.66667px;line-height:1.25;font-family:sans-serif;-inkscape-font-specification:'sans-serif, Bold';font-variant-ligatures:normal;font-variant-caps:normal;font-variant-numeric:normal;font-variant-east-asian:normal;word-spacing:0px"
     x="4.0952497"
     y="24.023739"
     id="text479"><tspan
       sodipodi:role="line"
       x="4.0952497"
       y="24.023739"
       id="tspan481"
       style="font-style:normal;font-variant:normal;font-weight:bold;font-stretch:normal;font-size:6.66667px;font-family:sans-serif;-inkscape-font-specification:'sans-serif, Bold';font-variant-ligatures:normal;font-variant-caps:normal;font-variant-numeric:normal;font-variant-east-asian:normal">MIC</tspan></text>
</svg>
