<?xml version="1.0" encoding="UTF-8" standalone="no"?>
<svg
   width="24"
   height="24"
   viewBox="0 0 24 24"
   version="1.1"
   id="svg5755"
   sodipodi:docname="mic.svg"
   inkscape:version="1.1.1 (c3084ef, 2021-09-22)"
   xmlns:inkscape="http://www.inkscape.org/namespaces/inkscape"
   xmlns:sodipodi="http://sodipodi.sourceforge.net/DTD/sodipodi-0.dtd"
   xmlns="http://www.w3.org/2000/svg"
   xmlns:svg="http://www.w3.org/2000/svg">
  <defs
     id="defs5759" />
  <sodipodi:namedview
     id="namedview5757"
     pagecolor="#ffffff"
     bordercolor="#666666"
     borderopacity="1.0"
     inkscape:pageshadow="2"
     inkscape:pageopacity="0.0"
     inkscape:pagecheckerboard="0"
     showgrid="false"
     inkscape:zoom="20.166667"
     inkscape:cx="11.975207"
     inkscape:cy="12.347107"
     inkscape:window-width="1280"
     inkscape:window-height="706"
     inkscape:window-x="0"
     inkscape:window-y="25"
     inkscape:window-maximized="0"
     inkscape:current-layer="svg5755" />
  <path
     fill-rule="evenodd"
     clip-rule="evenodd"
     d="m 11.92562,0.2107438 c -2.2305903,0 -4.0388431,1.7245242 -4.0388431,3.85183 v 5.135773 c 0,2.1273232 1.8082528,3.8518302 4.0388431,3.8518302 2.230608,0 4.038843,-1.724507 4.038843,-3.8518302 v -5.135773 c 0,-2.1273058 -1.808235,-3.85183 -4.038843,-3.85183 z m 2.692562,8.987603 v -5.135773 c 0,-1.418201 -1.20546,-2.5678867 -2.692562,-2.5678867 -1.487102,0 -2.6925621,1.1496857 -2.6925621,2.5678867 v 5.135773 c 0,1.4182442 1.2054601,2.5678872 2.6925621,2.5678872 1.487102,0 2.692562,-1.149643 2.692562,-2.5678872 z"
     id="path5751"
     style="stroke-width:0.876495" />
  <path
     d="M 11.252479,15.586393 C 7.850885,15.264295 5.1942149,12.527184 5.1942149,9.1983468 v -1.283943 c 0,-0.3545396 0.3013785,-0.6419717 0.6731405,-0.6419717 0.371762,0 0.6731405,0.2874321 0.6731405,0.6419717 v 1.283943 c 0,2.8364022 2.4110008,5.1357742 5.3851241,5.1357742 2.974114,0 5.385124,-2.299372 5.385124,-5.1357742 v -1.283943 c 0,-0.3545396 0.301387,-0.6419717 0.67314,-0.6419717 0.371753,0 0.673141,0.2874321 0.673141,0.6419717 v 1.283943 c 0,3.3288372 -2.656661,6.0659482 -6.058265,6.3880462 v 1.957586 c 0,0.354539 -0.301387,0.641972 -0.67314,0.641972 -0.371753,0 -0.673141,-0.287433 -0.673141,-0.641972 z"
     id="path5753"
     style="stroke-width:0.876495" />
  <text
     xml:space="preserve"
     style="font-style:normal;font-variant:normal;font-weight:bold;font-stretch:normal;font-size:6.66667px;line-height:1.25;font-family:sans-serif;-inkscape-font-specification:'sans-serif, Bold';font-variant-ligatures:normal;font-variant-caps:normal;font-variant-numeric:normal;font-variant-east-asian:normal"
     x="3.9759076"
     y="23.844992"
     id="text479"><tspan
       sodipodi:role="line"
       x="3.9759076"
       y="23.844992"
       id="tspan481"
       style="font-style:normal;font-variant:normal;font-weight:bold;font-stretch:normal;font-size:6.66667px;font-family:sans-serif;-inkscape-font-specification:'sans-serif, Bold';font-variant-ligatures:normal;font-variant-caps:normal;font-variant-numeric:normal;font-variant-east-asian:normal">MIC</tspan></text>
</svg>
