<?xml version="1.0" encoding="UTF-8" standalone="no"?>
<svg
   width="24"
   height="24"
   viewBox="0 0 24 24"
   version="1.1"
   id="svg7691"
   sodipodi:docname="screenshare.svg"
   inkscape:version="1.1.1 (c3084ef, 2021-09-22)"
   xmlns:inkscape="http://www.inkscape.org/namespaces/inkscape"
   xmlns:sodipodi="http://sodipodi.sourceforge.net/DTD/sodipodi-0.dtd"
   xmlns="http://www.w3.org/2000/svg"
   xmlns:svg="http://www.w3.org/2000/svg">
  <defs
     id="defs7695" />
  <sodipodi:namedview
     id="namedview7693"
     pagecolor="#ffffff"
     bordercolor="#666666"
     borderopacity="1.0"
     inkscape:pageshadow="2"
     inkscape:pageopacity="0.0"
     inkscape:pagecheckerboard="0"
     showgrid="false"
     inkscape:zoom="16.384059"
     inkscape:cx="12.023882"
     inkscape:cy="12.023882"
     inkscape:window-width="865"
     inkscape:window-height="648"
     inkscape:window-x="0"
     inkscape:window-y="83"
     inkscape:window-maximized="0"
     inkscape:current-layer="svg7691" />
  <path
     fill-rule="evenodd"
     clip-rule="evenodd"
     d="M 14.61476,3.1389352 C 14.087932,2.6515838 13.219009,3.0157491 13.219009,3.7238519 V 5.2705088 C 8.9028908,5.5585462 5.4288349,8.530036 5.1307886,12.299793 c -0.032602,0.412353 0.2448399,0.723207 0.5692597,0.822824 0.3148111,0.09666 0.7024872,0.0066 0.9288627,-0.310675 2.0070839,-2.813187 4.89754,-3.477179 6.590098,-3.559685 v 1.930521 c 0,0.715234 0.883988,1.076345 1.406683,0.574588 L 18.582464,7.959031 C 18.915739,7.639039 18.910779,7.113454 18.571444,6.799554 Z M 14.59694,6.591362 V 4.9746687 L 17.209312,7.39161 14.59694,9.899407 V 7.9335 L 13.937371,7.906 C 12.535648,7.8475 9.6389085,8.135512 7.1660659,10.225582 8.3194394,8.122612 10.840243,6.591364 13.907975,6.591364 Z"
     id="path7687"
     style="stroke-width:0.907155" />
  <path
     fill-rule="evenodd"
     clip-rule="evenodd"
     d="m 5.1103494,0.25342795 c -1.5220157,0 -2.7558603,1.20323905 -2.7558603,2.68750115 V 13.019058 c 0,1.484307 1.2338446,2.687501 2.7558603,2.687501 h 0.688965 c -0.3805016,0 -0.688965,0.300821 -0.688965,0.671876 0,0.371054 0.3084634,0.671875 0.688965,0.671875 H 18.200686 c 0.380492,0 0.688965,-0.300821 0.688965,-0.671875 0,-0.371055 -0.308473,-0.671876 -0.688965,-0.671876 h 0.688965 c 1.522061,0 2.75586,-1.203194 2.75586,-2.687501 V 2.9409291 c 0,-1.4842621 -1.233799,-2.68750115 -2.75586,-2.68750115 z M 18.889651,1.5971785 H 5.1103494 c -0.7610125,0 -1.3779302,0.6016151 -1.3779302,1.3437506 V 13.019058 c 0,0.742109 0.6169177,1.343751 1.3779302,1.343751 H 18.889651 c 0.760985,0 1.37793,-0.601642 1.37793,-1.343751 V 2.9409291 c 0,-0.7421355 -0.616945,-1.3437506 -1.37793,-1.3437506 z"
     id="path7689"
     style="stroke-width:0.907155" />
  <text
     xml:space="preserve"
     style="font-style:normal;font-variant:normal;font-weight:bold;font-stretch:normal;font-size:6.66667px;line-height:1.25;font-family:sans-serif;-inkscape-font-specification:'sans-serif, Bold';font-variant-ligatures:normal;font-variant-caps:normal;font-variant-numeric:normal;font-variant-east-asian:normal;letter-spacing:0px;word-spacing:0px"
     x="-0.53306919"
     y="23.846767"
     id="text479"><tspan
       sodipodi:role="line"
       x="-0.53306919"
       y="23.846767"
       id="tspan481"
       style="font-style:normal;font-variant:normal;font-weight:bold;font-stretch:normal;font-size:6.66667px;font-family:sans-serif;-inkscape-font-specification:'sans-serif, Bold';font-variant-ligatures:normal;font-variant-caps:normal;font-variant-numeric:normal;font-variant-east-asian:normal">SHARE</tspan></text>
</svg>
