<?xml version="1.0" encoding="UTF-8" standalone="no"?>
<svg
   width="40"
   height="40"
   viewBox="0 0 40 40"
   version="1.1"
   id="svg211"
   sodipodi:docname="settings.svg"
   inkscape:version="1.1.1 (c3084ef, 2021-09-22)"
   xmlns:inkscape="http://www.inkscape.org/namespaces/inkscape"
   xmlns:sodipodi="http://sodipodi.sourceforge.net/DTD/sodipodi-0.dtd"
   xmlns="http://www.w3.org/2000/svg"
   xmlns:svg="http://www.w3.org/2000/svg">
  <defs
     id="defs215" />
  <sodipodi:namedview
     id="namedview213"
     pagecolor="#ffffff"
     bordercolor="#666666"
     borderopacity="1.0"
     inkscape:pageshadow="2"
     inkscape:pageopacity="0.0"
     inkscape:pagecheckerboard="0"
     showgrid="false"
     width="40px"
     inkscape:zoom="11.295455"
     inkscape:cx="21.822937"
     inkscape:cy="21.734406"
     inkscape:window-width="1280"
     inkscape:window-height="725"
     inkscape:window-x="0"
     inkscape:window-y="23"
     inkscape:window-maximized="0"
     inkscape:current-layer="svg211" />
  <path
     fill-rule="evenodd"
     clip-rule="evenodd"
     d="m 16.772201,2.1788754 -0.9013,2.3477287 -0.993837,0.3574292 -2.549275,-1.1067222 C 11.222274,3.2973615 9.8870763,3.4854871 9.0130771,4.2443544 L 8.4460898,4.7366662 C 7.5720906,5.4955199 7.3554234,6.6548325 7.9081887,7.614718 L 9.1872974,9.8234021 8.7721165,10.690823 6.0672458,11.47368 c -1.1725843,0.339369 -1.9634971,1.292156 -1.9634971,2.365273 v 0.696308 c 0,1.073158 0.7909128,2.025958 1.9634971,2.365273 l 2.7039153,0.782666 0.4116567,0.862906 -1.2746291,2.213499 c -0.5527653,0.959872 -0.3360981,2.119116 0.5379011,2.877984 L 9.0130771,24.1299 c 0.8739992,0.758868 2.2091969,0.946953 3.3147119,0.467017 l 2.543777,-1.110558 0.999022,0.36053 0.901613,2.348545 c 0.390872,1.018079 1.48821,1.704867 2.72423,1.704867 h 0.801792 c 1.23613,0 2.333328,-0.686788 2.724278,-1.704867 l 0.901253,-2.347729 0.993821,-0.357538 2.549321,1.10675 c 1.105499,0.479936 2.440776,0.291851 3.314775,-0.467017 l 0.567003,-0.492311 c 0.873843,-0.758868 1.090619,-1.918112 0.53787,-2.877984 l -1.279203,-2.208739 0.415228,-0.867394 2.704855,-0.782938 c 1.172537,-0.339315 1.963522,-1.292115 1.963522,-2.365273 v -0.696308 c 0,-1.073117 -0.790985,-2.025904 -1.963522,-2.365273 L 31.023822,10.694971 30.61157,9.8287611 31.886544,7.614718 C 32.439293,6.6548325 32.222517,5.4955199 31.348674,4.7366662 L 30.781671,4.2443544 C 29.907672,3.4854871 28.572395,3.2973615 27.466896,3.7773111 L 24.923057,4.8879229 23.924067,4.5274337 23.022501,2.1788754 C 22.631551,1.1607557 21.534353,0.47403106 20.298223,0.47403106 h -0.801792 c -1.23602,0 -2.333358,0.68672464 -2.72423,1.70484434 z M 14.76512,7.6230274 18.180655,6.394628 19.496431,2.9673222 h 0.801792 l 1.315541,3.4264626 3.423164,1.2352265 3.714183,-1.6216368 0.567003,0.4923118 -1.860459,3.2307078 1.414218,2.9716859 3.947563,1.137009 v 0.696172 l -3.94631,1.142109 -1.422676,2.97223 1.867664,3.22505 -0.567003,0.492312 -3.721545,-1.615653 -3.415488,1.228332 -1.315855,3.427278 H 19.496431 L 18.180968,21.980456 14.757789,20.745325 11.04359,22.366962 10.476587,21.87465 12.337344,18.643344 10.922593,15.677642 6.9753121,14.535261 V 13.839089 L 10.921622,12.696858 12.344251,9.7246141 10.476587,6.4996863 11.04359,6.0073745 Z m 5.132286,12.7973996 c -3.964871,0 -7.178964,-2.79081 -7.178964,-6.23332 0,-3.442483 3.214093,-6.2331971 7.178964,-6.2331971 3.964792,0 7.178853,2.7907141 7.178853,6.2331971 0,3.44251 -3.214061,6.23332 -7.178853,6.23332 z m 4.307343,-6.23332 c 0,2.065533 -1.928593,3.739937 -4.307343,3.739937 -2.378938,0 -4.307407,-1.674404 -4.307407,-3.739937 0,-2.065479 1.928469,-3.73991 4.307407,-3.73991 2.37875,0 4.307343,1.674431 4.307343,3.73991 z"
     id="path209"
     style="stroke-width:1.4595" />
  <text
     xml:space="preserve"
     style="font-size:8.66667px;line-height:1.25;font-family:sans-serif"
     x="0.79678005"
     y="39.219315"
     id="text802"><tspan
       sodipodi:role="line"
       id="tspan800"
       x="0.79678005"
       y="39.219315"
       style="font-style:normal;font-variant:normal;font-weight:bold;font-stretch:normal;font-size:8.66667px;font-family:sans-serif;-inkscape-font-specification:'sans-serif Bold'">CONFIG</tspan></text>
</svg>
