<?xml version="1.0" encoding="UTF-8" standalone="no"?>
<svg
   width="40"
   height="40"
   viewBox="0 0 40 40"
   version="1.1"
   id="svg211"
   sodipodi:docname="settings.svg"
   inkscape:version="1.1.1 (c3084ef, 2021-09-22)"
   xmlns:inkscape="http://www.inkscape.org/namespaces/inkscape"
   xmlns:sodipodi="http://sodipodi.sourceforge.net/DTD/sodipodi-0.dtd"
   xmlns="http://www.w3.org/2000/svg"
   xmlns:svg="http://www.w3.org/2000/svg">
  <defs
     id="defs215" />
  <sodipodi:namedview
     id="namedview213"
     pagecolor="#ffffff"
     bordercolor="#666666"
     borderopacity="1.0"
     inkscape:pageshadow="2"
     inkscape:pageopacity="0.0"
     inkscape:pagecheckerboard="0"
     showgrid="false"
     width="40px"
     inkscape:zoom="11.295455"
     inkscape:cx="21.867202"
     inkscape:cy="21.778671"
     inkscape:window-width="967"
     inkscape:window-height="660"
     inkscape:window-x="313"
     inkscape:window-y="88"
     inkscape:window-maximized="0"
     inkscape:current-layer="svg211" />
  <path
     fill-rule="evenodd"
     clip-rule="evenodd"
     d="M 16.77126,1.9467811 15.895221,4.2187259 14.929239,4.5646174 12.451414,3.4936198 C 11.376884,3.0291629 10.079109,3.2112158 9.2296054,3.9455871 L 8.6785093,4.4220072 C 7.8290062,5.1563654 7.6184116,6.2782557 8.1556843,7.2071564 L 9.3989427,9.3445448 8.9953983,10.183966 6.3663385,10.941553 c -1.1397196,0.328414 -1.9084651,1.250445 -1.9084651,2.288922 v 0.673832 c 0,1.038516 0.7687455,1.96056 1.9084651,2.288922 l 2.6281312,0.757402 0.4001189,0.835052 -1.2389043,2.142048 c -0.5372727,0.928887 -0.3266781,2.050711 0.522825,2.785083 l 0.5510961,0.47642 c 0.8495036,0.734371 2.1472786,0.916385 3.2218086,0.451941 l 2.472481,-1.074709 0.971022,0.348892 0.876343,2.272735 c 0.379917,0.985215 1.446499,1.649834 2.647877,1.649834 h 0.779319 c 1.201485,0 2.267931,-0.664619 2.647924,-1.649834 l 0.875993,-2.271945 0.965966,-0.345997 2.47787,1.071024 c 1.074515,0.464444 2.372367,0.28243 3.22187,-0.451941 l 0.551111,-0.47642 c 0.849352,-0.734372 1.060052,-1.856196 0.522795,-2.785083 l -1.24335,-2.137442 0.40359,-0.839395 2.629045,-0.757665 c 1.139673,-0.328362 1.908489,-1.250406 1.908489,-2.288922 v -0.673832 c 0,-1.038477 -0.768816,-1.960508 -1.908489,-2.288922 L 30.623443,10.18798 30.222746,9.3497308 31.461985,7.2071564 C 31.999242,6.2782557 31.788542,5.1563654 30.93919,4.4220072 L 30.388079,3.9455871 C 29.538576,3.2112158 28.240724,3.0291629 27.166209,3.4936198 L 24.693668,4.5683814 23.722677,4.2195287 22.84638,1.9467811 C 22.466387,0.96152612 21.399941,0.2969687 20.198456,0.2969687 h -0.779319 c -1.201378,0 -2.26796,0.66455742 -2.647877,1.6498124 z m -1.950827,5.2684164 3.319806,-1.188747 1.278898,-3.3166734 h 0.779319 l 1.27867,3.3158574 3.327221,1.1953538 3.610084,-1.5692909 0.551111,0.4764202 -1.808315,3.1264215 1.374581,2.8757609 3.836922,1.100307 v 0.6737 l -3.835704,1.105242 -1.382802,2.876287 1.815318,3.120946 -0.551111,0.476421 -3.61724,-1.563501 -3.31976,1.188682 -1.278975,3.316647 h -0.779319 l -1.278594,-3.315858 -3.327236,-1.195261 -3.610099,1.569291 -0.551111,-0.476421 1.808604,-3.127 -1.375099,-2.86997 -3.8366481,-1.105505 v -0.6737 l 3.8357051,-1.10536 1.382756,-2.8763014 -1.815318,-3.120828 0.551111,-0.4764202 z m 4.98844,12.3843035 c -3.853745,0 -6.977755,-2.700723 -6.977755,-6.03211 0,-3.331361 3.12401,-6.0319917 6.977755,-6.0319917 3.853669,0 6.977648,2.7006307 6.977648,6.0319917 0,3.331387 -3.123979,6.03211 -6.977648,6.03211 z m 4.186619,-6.03211 c 0,1.998858 -1.874539,3.619213 -4.186619,3.619213 -2.312262,0 -4.186681,-1.620355 -4.186681,-3.619213 0,-1.998806 1.874419,-3.6191873 4.186681,-3.6191873 2.31208,0 4.186619,1.6203813 4.186619,3.6191873 z"
     id="path209"
     style="stroke-width:1.41549" />
  <text
     xml:space="preserve"
     style="font-size:8.66667px;line-height:1.25;font-family:sans-serif"
     x="1.1509048"
     y="39.307846"
     id="text802"><tspan
       sodipodi:role="line"
       id="tspan800"
       x="1.1509048"
       y="39.307846"
       style="font-style:normal;font-variant:normal;font-weight:bold;font-stretch:normal;font-size:8.66667px;font-family:sans-serif;-inkscape-font-specification:'sans-serif Bold'">CONFIG</tspan></text>
</svg>
