<?xml version="1.0" encoding="UTF-8" standalone="no"?>
<svg
   width="24"
   height="24"
   viewBox="0 0 24 24"
   version="1.1"
   id="svg8859"
   sodipodi:docname="tile-view.svg"
   inkscape:version="1.1.1 (c3084ef, 2021-09-22)"
   xmlns:inkscape="http://www.inkscape.org/namespaces/inkscape"
   xmlns:sodipodi="http://sodipodi.sourceforge.net/DTD/sodipodi-0.dtd"
   xmlns="http://www.w3.org/2000/svg"
   xmlns:svg="http://www.w3.org/2000/svg">
  <defs
     id="defs8863" />
  <sodipodi:namedview
     id="namedview8861"
     pagecolor="#ffffff"
     bordercolor="#666666"
     borderopacity="1.0"
     inkscape:pageshadow="2"
     inkscape:pageopacity="0.0"
     inkscape:pagecheckerboard="0"
     showgrid="false"
     inkscape:zoom="20.166667"
     inkscape:cx="11.975207"
     inkscape:cy="12.495868"
     inkscape:window-width="1280"
     inkscape:window-height="706"
     inkscape:window-x="0"
     inkscape:window-y="25"
     inkscape:window-maximized="0"
     inkscape:current-layer="svg8859" />
  <path
     fill-rule="evenodd"
     clip-rule="evenodd"
     d="M 8.4731405,1.3955136 H 5.0950413 c -0.7462716,0 -1.3512396,0.5970392 -1.3512396,1.3335301 V 6.062869 c 0,0.7364909 0.604968,1.3335301 1.3512396,1.3335301 h 3.3780992 c 0.7462717,0 1.3512397,-0.5970392 1.3512397,-1.3335301 V 2.7290437 c 0,-0.7364909 -0.604968,-1.3335301 -1.3512397,-1.3335301 z M 5.0950413,0.06198347 c -1.4925343,0 -2.7024793,1.19408733 -2.7024793,2.66706023 V 6.062869 c 0,1.4729729 1.209945,2.6670605 2.7024793,2.6670605 h 3.3780992 c 1.4925347,0 2.7024795,-1.1940876 2.7024795,-2.6670605 V 2.7290437 c 0,-1.4729729 -1.2099448,-2.66706023 -2.7024795,-2.66706023 z"
     id="path8851"
     style="stroke-width:0.894904" />
  <path
     fill-rule="evenodd"
     clip-rule="evenodd"
     d="m 18.607438,1.3955136 h -3.378099 c -0.746245,0 -1.35124,0.5970392 -1.35124,1.3335301 V 6.062869 c 0,0.7364909 0.604995,1.3335301 1.35124,1.3335301 h 3.378099 c 0.746245,0 1.35124,-0.5970392 1.35124,-1.3335301 V 2.7290437 c 0,-0.7364909 -0.604995,-1.3335301 -1.35124,-1.3335301 z M 15.229339,0.06198347 c -1.492579,0 -2.702479,1.19408733 -2.702479,2.66706023 V 6.062869 c 0,1.4729729 1.2099,2.6670605 2.702479,2.6670605 h 3.378099 c 1.492579,0 2.702479,-1.1940876 2.702479,-2.6670605 V 2.7290437 c 0,-1.4729729 -1.2099,-2.66706023 -2.702479,-2.66706023 z"
     id="path8853"
     style="stroke-width:0.894904" />
  <path
     fill-rule="evenodd"
     clip-rule="evenodd"
     d="M 8.4731405,11.39699 H 5.0950413 c -0.7462716,0 -1.3512396,0.597066 -1.3512396,1.33353 v 3.333825 c 0,0.736465 0.604968,1.33353 1.3512396,1.33353 h 3.3780992 c 0.7462717,0 1.3512397,-0.597065 1.3512397,-1.33353 V 12.73052 c 0,-0.736464 -0.604968,-1.33353 -1.3512397,-1.33353 z M 5.0950413,10.06346 c -1.4925343,0 -2.7024793,1.194043 -2.7024793,2.66706 v 3.333825 c 0,1.473018 1.209945,2.66706 2.7024793,2.66706 h 3.3780992 c 1.4925347,0 2.7024795,-1.194042 2.7024795,-2.66706 V 12.73052 c 0,-1.473017 -1.2099448,-2.66706 -2.7024795,-2.66706 z"
     id="path8855"
     style="stroke-width:0.894904" />
  <path
     fill-rule="evenodd"
     clip-rule="evenodd"
     d="m 18.607438,11.39699 h -3.378099 c -0.746245,0 -1.35124,0.597066 -1.35124,1.33353 v 3.333825 c 0,0.736465 0.604995,1.33353 1.35124,1.33353 h 3.378099 c 0.746245,0 1.35124,-0.597065 1.35124,-1.33353 V 12.73052 c 0,-0.736464 -0.604995,-1.33353 -1.35124,-1.33353 z m -3.378099,-1.33353 c -1.492579,0 -2.702479,1.194043 -2.702479,2.66706 v 3.333825 c 0,1.473018 1.2099,2.66706 2.702479,2.66706 h 3.378099 c 1.492579,0 2.702479,-1.194042 2.702479,-2.66706 V 12.73052 c 0,-1.473017 -1.2099,-2.66706 -2.702479,-2.66706 z"
     id="path8857"
     style="stroke-width:0.894904" />
  <text
     xml:space="preserve"
     style="font-style:normal;font-variant:normal;font-weight:bold;font-stretch:normal;font-size:6.66667px;line-height:1.25;font-family:sans-serif;-inkscape-font-specification:'sans-serif, Bold';font-variant-ligatures:normal;font-variant-caps:normal;font-variant-numeric:normal;font-variant-east-asian:normal"
     x="1.94285"
     y="24.043339"
     id="text479"><tspan
       sodipodi:role="line"
       x="1.94285"
       y="24.043339"
       id="tspan481"
       style="font-style:normal;font-variant:normal;font-weight:bold;font-stretch:normal;font-size:6.66667px;font-family:sans-serif;-inkscape-font-specification:'sans-serif, Bold';font-variant-ligatures:normal;font-variant-caps:normal;font-variant-numeric:normal;font-variant-east-asian:normal">VIEW</tspan></text>
</svg>
