<?xml version="1.0" encoding="UTF-8" standalone="no"?>
<svg
   width="24"
   height="24"
   viewBox="0 0 24 24"
   version="1.1"
   id="svg9681"
   sodipodi:docname="video.svg"
   inkscape:version="1.1.1 (c3084ef, 2021-09-22)"
   xmlns:inkscape="http://www.inkscape.org/namespaces/inkscape"
   xmlns:sodipodi="http://sodipodi.sourceforge.net/DTD/sodipodi-0.dtd"
   xmlns="http://www.w3.org/2000/svg"
   xmlns:svg="http://www.w3.org/2000/svg">
  <defs
     id="defs9685" />
  <sodipodi:namedview
     id="namedview9683"
     pagecolor="#ffffff"
     bordercolor="#666666"
     borderopacity="1.0"
     inkscape:pageshadow="2"
     inkscape:pageopacity="0.0"
     inkscape:pagecheckerboard="0"
     showgrid="false"
     inkscape:zoom="20.166667"
     inkscape:cx="11.975207"
     inkscape:cy="12"
     inkscape:window-width="1280"
     inkscape:window-height="706"
     inkscape:window-x="0"
     inkscape:window-y="26"
     inkscape:window-maximized="0"
     inkscape:current-layer="svg9681" />
  <path
     fill-rule="evenodd"
     clip-rule="evenodd"
     d="m 17.10124,13.399354 v 0.2742 c 0,1.6569 -1.3431,3 -3,3 H 4.3512397 c -1.65685,0 -3,-1.3431 -3,-3 V 4.6735537 c 0,-1.65685 1.34315,-3 3,-3 H 14.10124 c 1.6569,0 3,1.34315 3,3 v 0.2742 l 2.8338,-2.18607 c 0.9861,-0.76074 2.4162,-0.05779 2.4162,1.18767 V 14.397754 c 0,1.2455 -1.4301,1.9484 -2.4162,1.1877 z M 4.3512397,3.1735537 H 14.10124 c 0.8284,0 1.5,0.67157 1.5,1.5 v 9.0000003 c 0,0.8284 -0.6716,1.5 -1.5,1.5 H 4.3512397 c -0.82843,0 -1.5,-0.6716 -1.5,-1.5 V 4.6735537 c 0,-0.82843 0.67157,-1.5 1.5,-1.5 z m 12.7500003,8.3313003 3.75,2.8929 V 3.9493537 l -3.75,2.89286 z"
     id="path9679" />
  <text
     xml:space="preserve"
     style="font-style:normal;font-variant:normal;font-weight:bold;font-stretch:normal;font-size:6.66667px;line-height:1.25;font-family:sans-serif;-inkscape-font-specification:'sans-serif, Bold';font-variant-ligatures:normal;font-variant-caps:normal;font-variant-numeric:normal;font-variant-east-asian:normal"
     x="3.6783867"
     y="23.448298"
     id="text479"><tspan
       sodipodi:role="line"
       x="3.6783867"
       y="23.448298"
       id="tspan481"
       style="font-style:normal;font-variant:normal;font-weight:bold;font-stretch:normal;font-size:6.66667px;font-family:sans-serif;-inkscape-font-specification:'sans-serif, Bold';font-variant-ligatures:normal;font-variant-caps:normal;font-variant-numeric:normal;font-variant-east-asian:normal">CAM</tspan></text>
</svg>
