<?xml version="1.0" encoding="UTF-8" standalone="no"?>
<svg
   width="24"
   height="24"
   viewBox="0 0 24 24"
   version="1.1"
   id="svg185"
   sodipodi:docname="video-off.svg"
   inkscape:version="1.1.1 (c3084ef, 2021-09-22)"
   xmlns:inkscape="http://www.inkscape.org/namespaces/inkscape"
   xmlns:sodipodi="http://sodipodi.sourceforge.net/DTD/sodipodi-0.dtd"
   xmlns="http://www.w3.org/2000/svg"
   xmlns:svg="http://www.w3.org/2000/svg">
  <defs
     id="defs189" />
  <sodipodi:namedview
     id="namedview187"
     pagecolor="#ffffff"
     bordercolor="#666666"
     borderopacity="1.0"
     inkscape:pageshadow="2"
     inkscape:pageopacity="0.0"
     inkscape:pagecheckerboard="0"
     showgrid="false"
     inkscape:zoom="20.166667"
     inkscape:cx="10.884298"
     inkscape:cy="12.049587"
     inkscape:window-width="1280"
     inkscape:window-height="706"
     inkscape:window-x="19"
     inkscape:window-y="25"
     inkscape:window-maximized="0"
     inkscape:current-layer="svg185" />
  <path
     fill-rule="evenodd"
     clip-rule="evenodd"
     d="m 20.730713,0.78991793 c 0.2929,0.29288997 0.2929,0.76776997 0,1.06065997 l -3.3708,3.37081 0.0054,-0.00418 -1.6649,1.66494 v -0.00124 L 7.0110732,15.570248 h 0.00124 l -1.5,1.5 h -0.00124 l -1.28033,1.2803 c -0.29289,0.2929 -0.76777,0.2929 -1.06066,0 -0.29289,-0.2929 -0.29289,-0.7677 0,-1.0606 l 0.36263,-0.3627 c -1.20798,-0.3877 -2.0823,-1.5202 -2.0823,-2.857 V 5.0702479 c 0,-1.65685 1.34315,-3 3,-3 h 9.7499998 c 1.1342,0 2.1214,0.62941 2.6313,1.55799 l 2.8384,-2.83831997 c 0.2929,-0.29289 0.7677,-0.29289 1.0606,0 z m -5.0571,3.99648997 c -0.1327,-0.69271 -0.7418,-1.21616 -1.4732,-1.21616 H 4.4504132 c -0.82843,0 -1.5,0.67157 -1.5,1.5 v 9.0000001 c 0,0.8284 0.67157,1.5 1.5,1.5 h 0.43934 z"
     id="path181" />
  <path
     d="m 20.950413,4.3202479 c 0,-0.41421 0.3358,-0.75 0.75,-0.75 0.4142,0 0.75,0.33579 0.75,0.75 V 14.794448 c 0,1.2455 -1.4301,1.9484 -2.4162,1.1877 l -2.8338,-2.1861 v 0.2742 c 0,1.6569 -1.3431,3 -3,3 H 8.9504132 c -0.41421,0 -0.75,-0.3358 -0.75,-0.75 0,-0.4142 0.33579,-0.75 0.75,-0.75 h 5.2499998 c 0.8284,0 1.5,-0.6716 1.5,-1.5 V 9.5702479 c 0,-0.4142 0.3358,-0.75 0.75,-0.75 0.4142,0 0.75,0.3358 0.75,0.75 v 2.3313001 l 3.75,2.8929 z"
     id="path183" />
  <text
     xml:space="preserve"
     style="font-style:normal;font-variant:normal;font-weight:bold;font-stretch:normal;font-size:6.66667px;line-height:1.25;font-family:sans-serif;-inkscape-font-specification:'sans-serif, Bold';font-variant-ligatures:normal;font-variant-caps:normal;font-variant-numeric:normal;font-variant-east-asian:normal"
     x="3.8181815"
     y="23.752068"
     id="text479"><tspan
       sodipodi:role="line"
       x="3.8181815"
       y="23.752068"
       id="tspan481"
       style="font-style:normal;font-variant:normal;font-weight:bold;font-stretch:normal;font-size:6.66667px;font-family:sans-serif;-inkscape-font-specification:'sans-serif, Bold';font-variant-ligatures:normal;font-variant-caps:normal;font-variant-numeric:normal;font-variant-east-asian:normal">CAM</tspan></text>
</svg>
