<?xml version="1.0" encoding="UTF-8" standalone="no"?>
<svg
   width="40"
   height="40"
   viewBox="0 0 40 40"
   version="1.1"
   id="svg376"
   sodipodi:docname="virtual-background.svg"
   inkscape:version="1.1.1 (c3084ef, 2021-09-22)"
   xmlns:inkscape="http://www.inkscape.org/namespaces/inkscape"
   xmlns:sodipodi="http://sodipodi.sourceforge.net/DTD/sodipodi-0.dtd"
   xmlns="http://www.w3.org/2000/svg"
   xmlns:svg="http://www.w3.org/2000/svg">
  <defs
     id="defs380" />
  <sodipodi:namedview
     id="namedview378"
     pagecolor="#ffffff"
     bordercolor="#666666"
     borderopacity="1.0"
     inkscape:pageshadow="2"
     inkscape:pageopacity="0.0"
     inkscape:pagecheckerboard="0"
     showgrid="false"
     inkscape:zoom="10.395833"
     inkscape:cx="29.81964"
     inkscape:cy="17.795592"
     inkscape:window-width="1003"
     inkscape:window-height="724"
     inkscape:window-x="244"
     inkscape:window-y="23"
     inkscape:window-maximized="0"
     inkscape:current-layer="svg376" />
  <path
     fill-rule="evenodd"
     clip-rule="evenodd"
     d="M 30.879358,0.3647294 H 9.5695391 c -1.4711367,0 -2.6637275,1.1925908 -2.6637275,2.6637275 V 24.338277 c 0,1.471176 1.1925908,2.663727 2.6637275,2.663727 h 0.4783259 7.887509 0.926711 10.463121 1.554152 c 1.471176,0 2.663727,-1.192551 2.663727,-2.663727 V 3.0284569 c 0,-1.4711367 -1.192551,-2.6637275 -2.663727,-2.6637275 z M 16.356409,17.36011 l 2.859153,4.143428 4.241053,-9.790398 c 0.292344,-0.674855 1.076546,-0.98506 1.751534,-0.692702 0.284753,0.123464 0.517563,0.342423 0.658207,0.619317 l 5.013002,9.87537 V 3.0284569 H 9.5695391 V 24.01823 l 4.5944639,-6.65812 c 0.417765,-0.605333 1.247223,-0.757565 1.852635,-0.339759 0.13292,0.09176 0.248059,0.206839 0.339771,0.339759 z m -0.127552,-3.676743 c -2.206698,0 -3.995591,-1.788826 -3.995591,-3.9955921 0,-2.2066978 1.788893,-3.9955906 3.995591,-3.9955906 2.206765,0 3.995591,1.7888928 3.995591,3.9955906 0,2.2067661 -1.788826,3.9955921 -3.995591,3.9955921 z M 17.56072,9.6877749 c 0,0.7355621 -0.596301,1.3318641 -1.331863,1.3318641 -0.735562,0 -1.331863,-0.596302 -1.331863,-1.3318641 0,-0.7355614 0.596301,-1.3318631 1.331863,-1.3318631 0.735562,0 1.331863,0.5963017 1.331863,1.3318631 z m 7.213374,5.6851941 4.551112,8.965308 h -8.434693 z m -9.513889,5.088652 2.675169,3.876656 h -5.350269 z"
     id="path374"
     style="stroke-width:1.33186" />
  <text
     xml:space="preserve"
     style="font-size:8.53333px;line-height:1.25;font-family:sans-serif;word-spacing:0px"
     x="-1.3466936"
     y="39.535069"
     id="text906"><tspan
       sodipodi:role="line"
       id="tspan904"
       x="-1.3466936"
       y="39.535069"
       style="font-style:normal;font-variant:normal;font-weight:bold;font-stretch:normal;font-size:8.53333px;font-family:sans-serif;-inkscape-font-specification:'sans-serif Bold'">SCENERY</tspan></text>
</svg>
