<?xml version="1.0" encoding="UTF-8" standalone="no"?>
<svg
   width="40"
   height="40"
   viewBox="0 0 40 40"
   version="1.1"
   id="svg376"
   sodipodi:docname="virtual-background.svg"
   inkscape:version="1.1.1 (c3084ef, 2021-09-22)"
   xmlns:inkscape="http://www.inkscape.org/namespaces/inkscape"
   xmlns:sodipodi="http://sodipodi.sourceforge.net/DTD/sodipodi-0.dtd"
   xmlns="http://www.w3.org/2000/svg"
   xmlns:svg="http://www.w3.org/2000/svg">
  <defs
     id="defs380" />
  <sodipodi:namedview
     id="namedview378"
     pagecolor="#ffffff"
     bordercolor="#666666"
     borderopacity="1.0"
     inkscape:pageshadow="2"
     inkscape:pageopacity="0.0"
     inkscape:pagecheckerboard="0"
     showgrid="false"
     inkscape:zoom="10.395833"
     inkscape:cx="29.81964"
     inkscape:cy="25.490983"
     inkscape:window-width="1003"
     inkscape:window-height="724"
     inkscape:window-x="246"
     inkscape:window-y="54"
     inkscape:window-maximized="0"
     inkscape:current-layer="svg376" />
  <path
     fill-rule="evenodd"
     clip-rule="evenodd"
     d="M 31.167936,0.55711422 H 9.0885771 c -1.5242623,0 -2.7599198,1.24427088 -2.7599198,2.77915828 V 25.569539 c 0,1.534929 1.2356575,2.779158 2.7599198,2.779158 h 0.4955988 8.1723431 0.960176 10.840965 1.610276 c 1.524303,0 2.759919,-1.244229 2.759919,-2.779158 V 3.3362725 c 0,-1.5348874 -1.235616,-2.77915828 -2.759919,-2.77915828 z M 16.120535,18.288978 l 2.962402,4.322981 4.394206,-10.214658 c 0.302901,-0.7041 1.115422,-1.027747 1.814785,-0.72272 0.295036,0.128814 0.536253,0.357261 0.681976,0.646154 l 5.194032,10.303313 V 3.3362725 H 9.0885771 V 25.235623 l 4.7603789,-6.946645 c 0.432852,-0.631564 1.292263,-0.790393 1.919538,-0.354482 0.13772,0.09574 0.257017,0.215802 0.352041,0.354482 z m -0.132159,-3.836072 c -2.286386,0 -4.139879,-1.866344 -4.139879,-4.168738 0,-2.3023239 1.853493,-4.1687372 4.139879,-4.1687372 2.286456,0 4.13988,1.8664133 4.13988,4.1687372 0,2.302394 -1.853424,4.168738 -4.13988,4.168738 z m 1.37996,-4.168738 c 0,0.767437 -0.617835,1.389579 -1.37996,1.389579 -0.762124,0 -1.379959,-0.622142 -1.379959,-1.389579 0,-0.7674368 0.617835,-1.3895788 1.379959,-1.3895788 0.762125,0 1.37996,0.622142 1.37996,1.3895788 z m 7.473863,5.931558 4.715461,9.353813 h -8.739286 z m -9.857454,5.309165 2.771774,4.044648 h -5.543478 z"
     id="path374"
     style="stroke-width:1.38476" />
  <text
     xml:space="preserve"
     style="font-size:8.66667px;line-height:1.25;font-family:sans-serif;word-spacing:0px"
     x="-2.6933873"
     y="39.438877"
     id="text906"><tspan
       sodipodi:role="line"
       id="tspan904"
       x="-2.6933873"
       y="39.438877"
       style="font-style:normal;font-variant:normal;font-weight:bold;font-stretch:normal;font-size:8.66667px;font-family:sans-serif;-inkscape-font-specification:'sans-serif Bold'">BACKRND</tspan></text>
</svg>
