<?xml version="1.0" encoding="UTF-8" standalone="no"?>
<svg
   width="24"
   height="24"
   viewBox="0 0 24 24"
   version="1.1"
   id="svg9748"
   sodipodi:docname="whiteboard.svg"
   inkscape:version="1.1.1 (c3084ef, 2021-09-22)"
   xmlns:inkscape="http://www.inkscape.org/namespaces/inkscape"
   xmlns:sodipodi="http://sodipodi.sourceforge.net/DTD/sodipodi-0.dtd"
   xmlns="http://www.w3.org/2000/svg"
   xmlns:svg="http://www.w3.org/2000/svg">
  <defs
     id="defs9752" />
  <sodipodi:namedview
     id="namedview9750"
     pagecolor="#ffffff"
     bordercolor="#666666"
     borderopacity="1.0"
     inkscape:pageshadow="2"
     inkscape:pageopacity="0.0"
     inkscape:pagecheckerboard="0"
     showgrid="false"
     inkscape:zoom="20.166667"
     inkscape:cx="11.975207"
     inkscape:cy="12.595041"
     inkscape:window-width="1280"
     inkscape:window-height="706"
     inkscape:window-x="0"
     inkscape:window-y="25"
     inkscape:window-maximized="0"
     inkscape:current-layer="svg9748" />
  <path
     fill-rule="evenodd"
     clip-rule="evenodd"
     d="M 19.987013,1.5167601 H 3.5171192 V 10.962592 H 19.987013 Z M 3.5171192,0.16735537 c -0.7580085,0 -1.3724911,0.6041465 -1.3724911,1.34940473 v 9.4458319 c 0,0.745231 0.6144826,1.349405 1.3724911,1.349405 H 19.987013 c 0.757981,0 1.372491,-0.604174 1.372491,-1.349405 V 1.5167601 c 0,-0.74525823 -0.61451,-1.34940473 -1.372491,-1.34940473 z"
     id="path9742"
     style="stroke-width:0.907266" />
  <path
     fill-rule="evenodd"
     clip-rule="evenodd"
     d="m 9.285791,11.020707 c 0.3463436,0.151403 0.5023226,0.550107 0.3483932,0.890607 L 6.8892019,17.983635 C 6.7352724,18.324134 6.3297287,18.477517 5.9833943,18.326204 5.6370508,18.1748 5.4810717,17.776096 5.6350012,17.435596 l 2.7449823,-6.07232 c 0.1539294,-0.3405 0.5594731,-0.493883 0.9058075,-0.342569 z"
     id="path9744"
     style="stroke-width:0.907266" />
  <path
     fill-rule="evenodd"
     clip-rule="evenodd"
     d="m 14.218341,11.020707 c -0.346325,0.151403 -0.502332,0.550107 -0.34843,0.890607 l 2.744983,6.072321 c 0.153993,0.340499 0.559519,0.493882 0.905844,0.342569 0.346325,-0.151404 0.502332,-0.550108 0.34843,-0.890608 l -2.744983,-6.07232 c -0.153993,-0.3405 -0.559519,-0.493883 -0.905844,-0.342569 z"
     id="path9746"
     style="stroke-width:0.907266" />
  <text
     xml:space="preserve"
     style="font-style:normal;font-variant:normal;font-weight:bold;font-stretch:normal;font-size:6px;line-height:1.25;font-family:sans-serif;-inkscape-font-specification:'sans-serif, Bold';font-variant-ligatures:normal;font-variant-caps:normal;font-variant-numeric:normal;font-variant-east-asian:normal"
     x="-0.040622145"
     y="23.993753"
     id="text479"><tspan
       sodipodi:role="line"
       x="-0.040622145"
       y="23.993753"
       id="tspan481"
       style="font-style:normal;font-variant:normal;font-weight:bold;font-stretch:normal;font-size:6px;font-family:sans-serif;-inkscape-font-specification:'sans-serif, Bold';font-variant-ligatures:normal;font-variant-caps:normal;font-variant-numeric:normal;font-variant-east-asian:normal">BOARD</tspan></text>
</svg>
